<svg version="1.1" xmlns="http://www.w3.org/2000/svg" xmlns:xlink="http://www.w3.org/1999/xlink" width="512.000000pt" height="512.000000pt" viewBox="0,0,256,256"><g fill="#ffffff" fill-rule="nonzero" stroke="none" stroke-width="1" stroke-linecap="butt" stroke-linejoin="miter" stroke-miterlimit="10" stroke-dasharray="" stroke-dashoffset="0" font-family="none" font-weight="none" font-size="none" text-anchor="none" style="mix-blend-mode: normal"><g transform="translate(0.00018,-0.09647) scale(0.5,0.5)"><g transform="translate(0,512) scale(0.1,-0.1)"><path d="M203,4442c-100,-35 -171,-115 -193,-216c-8,-36 -10,-444 -8,-1396l3,-1345l28,-57c32,-64 80,-111 146,-142c41,-18 68,-21 232,-24l185,-4l11,-76c15,-100 44,-178 98,-258l43,-64h-333c-238,0 -342,-3 -360,-12c-69,-31 -71,-139 -4,-174c42,-21 4976,-21 5018,0c47,25 63,83 37,135c-23,43 -54,51 -201,51h-135l35,49c65,90 114,230 115,331c1,31 6,38 52,65c29,17 67,49 85,73c60,79 64,111 61,483l-3,334l-285,568c-304,606 -314,623 -410,670c-44,22 -52,22 -502,25l-457,3l-3,387c-3,369 -4,389 -24,433c-31,66 -78,114 -142,146l-57,28l-1490,2c-1410,2 -1493,2 -1542,-15zM3209,4246c15,-8 32,-26 39,-41c9,-20 12,-353 12,-1385v-1360l-747,1h-748l-34,72c-47,100 -158,210 -261,261c-177,86 -363,86 -540,0c-103,-51 -214,-161 -261,-261l-34,-72h-177c-117,-1 -186,3 -203,11c-38,17 -55,58 -55,128v60h160c174,0 203,7 226,51c20,40 20,458 0,498c-23,44 -52,51 -226,51h-160v963c1,1032 -1,994 51,1023c37,21 2918,20 2958,0zM4354,3239c15,-12 45,-57 67,-100l39,-79h-359c-387,0 -401,-2 -427,-51c-19,-37 -21,-853 -2,-894c25,-56 17,-55 658,-55h590v-264c0,-252 -1,-265 -21,-287c-11,-13 -22,-19 -25,-13c-24,56 -91,148 -146,199c-184,174 -446,212 -678,99c-103,-51 -214,-161 -261,-261l-34,-72h-147l-148,-1v900v900h434c425,0 434,0 460,-21zM4710,2560l150,-300h-500h-500v300v300h350h350zM400,1960v-100h-100h-100v100v100h100h100zM1364,1622c91,-42 149,-100 194,-190c35,-72 37,-81 37,-172c0,-91 -2,-100 -37,-172c-45,-91 -103,-147 -196,-191c-61,-29 -76,-32 -162,-32c-86,0 -101,3 -162,32c-93,44 -151,100 -196,191c-35,72 -37,81 -37,171c0,87 3,102 32,163c40,85 97,147 172,186c78,42 122,52 213,48c61,-3 92,-11 142,-34zM4484,1622c91,-42 149,-100 194,-190c35,-72 37,-81 37,-172c0,-91 -2,-100 -37,-172c-45,-91 -103,-147 -196,-191c-61,-29 -76,-32 -162,-32c-86,0 -101,3 -162,32c-93,44 -151,100 -196,191c-35,72 -37,81 -37,171c0,87 3,102 32,163c40,85 97,147 172,186c78,42 122,52 213,48c61,-3 92,-11 142,-34zM3727,1182c15,-100 44,-177 98,-258l43,-64h-1108h-1108l43,64c54,81 83,158 98,258l11,78h956h956z"></path><path d="M1051,3846c-87,-48 -50,-186 49,-186c51,0 100,49 100,99c0,75 -83,124 -149,87z"></path><path d="M1451,3846c-67,-37 -65,-143 4,-174c37,-17 1313,-17 1350,0c29,13 55,55 55,88c0,33 -26,75 -55,88c-40,18 -1321,16 -1354,-2z"></path><path d="M1851,3446c-67,-37 -65,-143 4,-174c19,-9 148,-12 475,-12c482,0 490,1 516,51c27,52 8,115 -41,137c-39,18 -921,16 -954,-2z"></path><path d="M1132,1449c-48,-14 -109,-80 -123,-131c-23,-89 12,-182 88,-229c57,-36 154,-34 210,3c62,41 88,90 88,168c0,77 -26,127 -85,166c-43,29 -125,39 -178,23z"></path><path d="M4252,1449c-48,-14 -109,-80 -123,-131c-23,-89 12,-182 88,-229c30,-19 52,-24 105,-24c58,0 72,4 109,30c58,41 84,94 84,170c0,72 -27,123 -85,161c-43,29 -125,39 -178,23z"></path></g></g></g></svg>