<?xml version="1.0" standalone="no"?>
<!DOCTYPE svg PUBLIC "-//W3C//DTD SVG 20010904//EN"
 "http://www.w3.org/TR/2001/REC-SVG-20010904/DTD/svg10.dtd">
<svg version="1.0" xmlns="http://www.w3.org/2000/svg"
 width="512.000000pt" height="512.000000pt" viewBox="0 0 512.000000 512.000000"
 preserveAspectRatio="xMidYMid meet">

<g transform="translate(0.000000,512.000000) scale(0.100000,-0.100000)"
fill="#000000" stroke="none">
<path d="M1465 4594 c-423 -245 -899 -520 -1056 -611 -201 -116 -290 -173
-298 -190 -15 -33 -16 -2432 0 -2466 6 -12 18 -28 27 -34 169 -105 2107 -1213
2123 -1213 12 0 170 86 353 191 182 106 452 262 599 347 l268 155 37 -35 c61
-58 131 -107 211 -148 444 -223 976 -43 1196 404 165 334 106 723 -149 993
-86 92 -186 163 -289 208 l-67 29 0 773 c0 528 -3 780 -11 796 -13 29 79 -26
-824 495 -423 244 -890 514 -1036 598 -148 86 -277 154 -290 154 -13 -1 -370
-201 -794 -446z m1757 -281 c521 -302 948 -550 948 -553 0 -10 -555 -325 -570
-324 -14 0 -1885 1075 -1903 1093 -9 9 538 330 562 331 8 0 441 -246 963 -547z
m-757 -415 c506 -293 932 -539 948 -548 l27 -17 -221 -127 -221 -127 -541 312
c-298 172 -722 417 -942 544 -220 127 -408 236 -417 241 -15 8 23 33 200 136
119 70 224 125 232 122 8 -3 428 -244 935 -536z m-590 -356 c523 -302 949
-552 948 -557 -2 -11 -544 -325 -562 -325 -7 0 -412 230 -900 512 -487 281
-914 528 -948 547 -35 20 -63 38 -63 41 0 6 561 330 570 330 3 0 433 -247 955
-548z m-597 -507 l902 -520 0 -1108 0 -1109 -33 20 c-17 11 -183 106 -367 212
-184 107 -426 245 -536 309 -111 64 -377 217 -592 341 l-391 225 -1 1108 0
1108 59 -33 c32 -18 464 -267 959 -553z m2982 -90 l0 -675 -114 0 c-63 0 -148
-6 -189 -14 -282 -54 -534 -258 -646 -523 -54 -127 -65 -185 -65 -348 0 -176
18 -259 89 -401 l43 -85 -22 -13 c-11 -8 -241 -141 -511 -296 -269 -155 -493
-284 -497 -287 -5 -2 -8 494 -8 1104 l0 1108 283 163 c156 89 287 162 290 162
4 0 7 -187 7 -415 l0 -416 25 -24 c28 -29 54 -31 98 -8 117 60 605 348 620
365 16 19 17 57 17 483 l0 462 288 166 c158 92 288 167 290 167 1 0 2 -304 2
-675z m-740 -133 l0 -378 -220 -126 -220 -127 2 381 3 381 210 123 c116 67
213 123 218 123 4 1 7 -169 7 -377z m785 -722 c214 -55 387 -196 481 -395 53
-111 68 -184 68 -320 0 -108 -4 -129 -31 -210 -44 -128 -94 -208 -187 -300
-202 -200 -490 -263 -759 -164 -168 61 -316 192 -397 349 -58 114 -75 192 -74
340 0 118 4 145 27 215 64 193 211 358 391 441 142 65 331 82 481 44z"/>
<path d="M2925 1319 c-285 -163 -366 -212 -375 -229 -6 -10 -10 -88 -10 -174
0 -148 1 -156 23 -182 16 -18 34 -27 54 -27 35 0 468 245 483 273 6 10 10 93
10 184 l0 165 -26 20 c-15 12 -36 21 -48 21 -12 0 -62 -23 -111 -51z m25 -211
l0 -43 -119 -67 c-65 -38 -121 -68 -125 -68 -3 0 -6 17 -6 38 l0 38 123 71
c67 39 123 72 125 72 1 1 2 -18 2 -41z"/>
<path d="M4450 1818 c-40 -9 -65 -30 -237 -201 l-193 -191 -83 81 c-63 62 -93
84 -127 93 -127 34 -250 -59 -250 -190 0 -28 6 -65 14 -83 8 -18 90 -107 182
-199 144 -142 176 -168 214 -178 50 -14 93 -9 145 16 50 23 542 527 566 579
69 149 -66 308 -231 273z m88 -187 c3 -19 -42 -69 -249 -277 -140 -140 -260
-254 -268 -254 -24 0 -301 281 -301 305 0 24 18 45 38 45 8 0 65 -49 127 -110
62 -61 121 -110 131 -110 36 0 81 39 269 233 171 177 193 197 220 194 23 -1
31 -7 33 -26z"/>
</g>
</svg>
